Coordinates
version=1
nRows=6
nColumns=38
inDegrees=yes

Units are S.I. units (second, meters, Newtons, ...)
Angles are in degrees.

endheader
time	pelvis_tilt	pelvis_list	pelvis_rotation	pelvis_tx	pelvis_ty	pelvis_tz	hip_flexion_r	hip_adduction_r	hip_rotation_r	knee_angle_r	ankle_angle_r	subtalar_angle_r	mtp_angle_r	hip_flexion_l	hip_adduction_l	hip_rotation_l	knee_angle_l	ankle_angle_l	subtalar_angle_l	mtp_angle_l	lumbar_extension	lumbar_bending	lumbar_rotation	arm_flex_r	arm_add_r	arm_rot_r	elbow_flex_r	pro_sup_r	wrist_flex_r	wrist_dev_r	arm_flex_l	arm_add_l	arm_rot_l	elbow_flex_l	pro_sup_l	wrist_flex_l	wrist_dev_l
      7.33000000	      2.66112039	      6.65636931	     -3.01884480	      0.09770121	      0.86616936	      2.55970507	      2.49751460	    -10.13172916	      0.75560299	    -60.88705767	    -14.53537975	      0.00000000	      0.00000000	     14.95842709	      7.12683472	     -1.11850953	    -19.66854939	     -0.59037409	      0.00000000	      0.00000000	     -7.51771407	     -9.44189631	      3.80678750	      9.29520927	     -9.45982846	     10.62612885	     40.95423785	     89.50800247	      0.00000000	      0.00000000	     -9.99266055	    -10.56174047	    -10.84828419	     12.43275773	     98.20603496	      0.00000000	      0.00000000
      7.34000000	      2.57578611	      6.35691198	     -3.78413767	      0.09669204	      0.86835677	      2.55987561	      4.97062391	     -9.44745157	      1.79920802	    -63.13923086	    -11.66453523	      0.00000000	      0.00000000	     13.76072336	      6.75854982	     -1.90086274	    -19.03751176	      0.13193360	      0.00000000	      0.00000000	     -7.45976348	     -9.14279209	      3.98684597	      9.41941914	     -9.35416098	     11.26012078	     39.76092026	     89.95526126	      0.00000000	      0.00000000	     -9.43034366	    -10.56205104	    -10.41642481	     12.99846739	     97.55520907	      0.00000000	      0.00000000
      7.35000000	      2.43061346	      6.04643644	     -4.60948441	      0.09548091	      0.87040912	      2.56017604	      7.44222315	     -8.63723665	      2.89173900	    -64.97091907	     -8.97052323	      0.00000000	      0.00000000	     12.55214486	      6.37180964	     -2.80334299	    -18.24312380	      0.77011905	      0.00000000	      0.00000000	     -7.34806487	     -8.83843882	      4.21754675	      9.52349590	     -9.27090522	     11.88633697	     38.55093534	     90.41639577	      0.00000000	      0.00000000	     -8.80387987	    -10.59086484	    -10.00652735	     13.52668715	     96.96516735	      0.00000000	      0.00000000
      7.36000000	      2.22498876	      5.75295121	     -5.43621552	      0.09410155	      0.87232772	      2.56049487	      9.87805939	     -7.75816914	      3.94616186	    -66.39227687	     -6.64660014	      0.00000000	      0.00000000	     11.35450330	      6.01688264	     -3.73773185	    -17.31367783	      1.30941296	      0.00000000	      0.00000000	     -7.19267485	     -8.54721941	      4.44626487	      9.58812868	     -9.20991376	     12.48823587	     37.34575358	     90.87536233	      0.00000000	      0.00000000	     -8.11575663	    -10.64605006	     -9.60981238	     14.03148050	     96.49900595	      0.00000000	      0.00000000
      7.37000000	      1.96806719	      5.48007486	     -6.19393825	      0.09262567	      0.87410725	      2.56076979	     12.24650786	     -6.86034960	      4.84702094	    -67.41184099	     -4.72105122	      0.00000000	      0.00000000	     10.18238469	      5.71630709	     -4.60752861	    -16.30864790	      1.75779244	      0.00000000	      0.00000000	     -7.01067017	     -8.26117075	      4.61902663	      9.59417264	     -9.17205657	     13.03333435	     36.16307460	     91.31061601	      0.00000000	      0.00000000	     -7.38212888	    -10.72672778	     -9.21671271	     14.52994493	     96.19817619	      0.00000000	      0.00000000
      7.38000000	      1.67787942	      5.21823399	     -6.82182667	      0.09117046	      0.87574241	      2.56096117	     14.52137097	     -5.98694423	      5.49661681	    -68.03350646	     -3.12168905	      0.00000000	      0.00000000	      9.04761517	      5.46875840	     -5.32955985	    -15.29972646	      2.13972442	      0.00000000	      0.00000000	     -6.82132868	     -7.95922144	      4.68358249	      9.53206259	     -9.15765702	     13.47667458	     35.02634197	     91.69652379	      0.00000000	      0.00000000	     -6.61680862	    -10.83780073	     -8.82032574	     15.04054359	     96.07234972	      0.00000000	      0.00000000
